<svg width="52" height="70" viewBox="0 0 52 70" fill="none" xmlns="http://www.w3.org/2000/svg">
<path d="M25.9885 0C11.6609 0 6.14382e-06 11.5202 0 25.6692C-8.97942e-06 50.5653 24.5254 69.4918 24.5254 69.4918C25.387 70.1694 26.6084 70.1694 27.47 69.4918C27.47 69.4918 52.0001 50.5653 52 25.6692C52 11.5202 40.316 0 25.9885 0ZM25.9885 14.0059C32.4857 14.0059 37.8173 19.2529 37.8173 25.6692C37.8174 32.0855 32.4858 37.3461 25.9885 37.3461C19.4912 37.3461 14.178 32.0855 14.178 25.6692C14.1781 19.2529 19.4912 14.0059 25.9885 14.0059Z" fill="#594551"/>
</svg>
