<svg width="684" height="520" viewBox="0 0 684 520" fill="none" xmlns="http://www.w3.org/2000/svg">
<path d="M415.926 33.4842V0L268 0.160809V33.4842H415.926ZM672.027 295.593L670.112 296.236L667.542 297.102C665.38 297.82 663.267 298.562 661.093 299.23C657.386 300.467 653.53 301.63 649.7 302.78L646.932 303.658L640.334 305.687C636.504 306.825 632.686 307.889 628.868 308.952L625.161 310.016C623.172 310.597 621.133 311.167 619.131 311.736L611.434 313.727L607.727 314.692L604.996 315.421C602.525 316.065 600.054 316.659 597.583 317.326C594.605 318.069 591.554 318.774 588.502 319.491L586.166 320.035L583.695 320.604C581.013 321.235 578.357 321.841 575.676 322.46C572.995 323.078 570.227 323.697 567.471 324.241L564.234 324.921L560.379 325.75C558.106 326.208 555.795 326.715 553.497 327.185L545.218 328.756L541.919 329.374L538.744 329.98C536.161 330.463 533.592 330.97 531.034 331.403C528.019 331.947 524.93 332.442 521.841 332.961L519.259 333.37L515.786 333.951C513.315 334.384 510.844 334.78 508.373 335.188C505.119 335.683 501.861 336.161 498.599 336.623L496.326 336.932L492.335 337.501C490.024 337.86 487.677 338.181 485.329 338.491C482.462 338.874 479.559 339.22 476.68 339.567L473.134 339.962L470.292 340.321C467.561 340.68 464.83 341.002 462.1 341.311C458.739 341.657 455.465 341.979 452.215 342.288L449.843 342.51L446.136 342.894C443.603 343.141 441.07 343.401 438.512 343.636C435.955 343.871 433.484 344.032 430.975 344.217L426.688 344.527L423.377 344.799C420.461 345.021 417.544 345.257 414.628 345.454C412.38 345.603 410.082 345.702 407.771 345.838L403.805 346.061L399.072 346.308C397.441 346.419 395.798 346.494 394.13 346.593V383.095C394.091 391.612 390.694 399.77 384.678 405.793C378.661 411.816 370.513 415.216 362.004 415.255H321.971C313.461 415.223 305.309 411.824 299.291 405.8C293.273 399.776 289.878 391.614 289.846 383.095V346.58C288.153 346.481 286.436 346.407 284.743 346.296L281.036 346.061L277.737 345.924C274.895 345.776 272.078 345.628 269.273 345.442L262.156 344.91L258.128 344.601L253.976 344.279C251.122 344.081 248.268 343.859 245.439 343.624C242.609 343.389 240.138 343.104 237.531 342.857L234.714 342.548L231.13 342.214C228.029 341.917 224.952 341.62 221.863 341.286C219.516 341.026 217.168 340.729 214.808 340.457L211.274 340.037L207.148 339.542C204.269 339.171 201.377 338.849 198.498 338.466C196.027 338.144 193.482 337.773 190.949 337.414L187.983 336.969L183.795 336.375C181.039 336.004 178.271 335.609 175.528 335.139C173.057 334.767 170.747 334.372 168.362 333.902L164.915 333.333L162.209 332.887C159.058 332.38 155.883 331.873 152.757 331.304C149.989 330.809 147.295 330.29 144.552 329.782L142.192 329.325L139.363 328.805C136.335 328.248 133.321 327.68 130.343 327.086C127.649 326.542 125.005 325.985 122.349 325.404L119.766 324.847L116.059 324.056C113.428 323.511 110.783 322.967 108.164 322.361C105.544 321.755 102.591 321.124 99.7989 320.431L97.6862 319.924L94.7703 319.231C91.9531 318.576 89.1607 317.932 86.3559 317.252C84.2924 316.733 82.2659 316.213 80.2642 315.669L76.0757 314.568L73.6044 313.925C70.6884 313.183 67.7765 312.428 64.8687 311.661L58.6907 309.905L54.8729 308.816L52.5376 308.161C49.5722 307.307 46.6188 306.478 43.7028 305.588C40.7868 304.697 38.2539 303.93 35.5109 303.114L33.9664 302.619L31.6067 301.889C28.703 300.986 25.7869 300.084 22.9574 299.156C19.7942 298.154 16.6804 297.09 13.5667 296.026C9.85994 294.789 6.15324 293.552 2.44645 292.315L0.0742835 291.462V516.586C0.0871867 517.492 0.453682 518.357 1.09578 518.995C1.73787 519.633 2.60427 519.994 3.50905 520H680.615C681.513 519.981 682.369 519.613 683.001 518.973C683.633 518.334 683.991 517.473 684 516.574V291.449L681.727 292.278C678.44 293.453 675.252 294.517 672.027 295.593ZM680.529 62.2803H3.4227C2.51993 62.2962 1.65844 62.6623 1.01998 63.3014C0.38153 63.9406 0.0158696 64.8028 0 65.7066V260.922C3.79327 262.319 7.57404 263.692 11.4291 265.065C12.6647 265.498 13.9005 265.907 15.1361 266.302L17.6814 267.131L21.2153 268.368C24.5143 269.494 27.8254 270.632 31.1862 271.708L35.5109 273.056L37.9822 273.835C42.4304 275.245 46.8165 276.631 51.2646 277.942C52.7474 278.412 54.3044 278.833 55.8118 279.266L58.9996 280.169L61.7054 280.948C65.0415 281.9 68.3903 282.865 71.7635 283.793C73.691 284.337 75.6306 284.832 77.5829 285.339L80.61 286.118L83.5014 286.885C86.541 287.677 89.556 288.481 92.6326 289.248C94.4366 289.705 96.3394 290.138 98.2175 290.596L102.517 291.598L106.298 292.489C108.769 293.091 111.269 293.68 113.798 294.257C116.269 294.839 118.852 295.358 121.385 295.89L124.758 296.595L128.23 297.325C130.577 297.845 132.938 298.352 135.335 298.834C138.226 299.416 141.142 299.947 144.045 300.504L147.382 301.135L150.186 301.654C152.509 302.112 154.82 302.557 157.155 302.965C160.269 303.51 163.407 304.017 166.558 304.549L170.351 305.167L173.947 305.773L179.347 306.639C182.893 307.22 186.488 307.715 190.071 308.21L193.778 308.73L196.571 309.15L201.723 309.855C206.245 310.461 210.731 310.981 215.241 311.513L217.168 311.736L220.393 312.131C221.765 312.317 223.136 312.465 224.508 312.638C229.574 313.207 234.701 313.653 239.792 314.147L243.214 314.494L247.564 314.902C251.345 315.248 255.15 315.533 258.968 315.817L262.737 316.077L266.444 316.362C267.902 316.498 269.397 316.597 270.855 316.696C274.055 316.906 277.267 317.079 280.517 317.228L284.372 317.413L287.325 317.623C288.153 317.623 288.956 317.697 289.796 317.735V289.631C289.829 281.112 293.224 272.95 299.242 266.926C305.259 260.902 313.411 257.503 321.922 257.47H361.968C370.475 257.513 378.621 260.915 384.637 266.937C390.652 272.959 394.05 281.115 394.093 289.631V317.772H394.291L398.306 317.549L402.693 317.314C406.152 317.141 409.587 316.955 413.035 316.72C414.369 316.634 415.641 316.547 416.889 316.436L419.88 316.201C425.39 315.83 430.889 315.421 436.363 314.964L439.34 314.692L442.639 314.345C448.373 313.814 453.908 313.306 459.381 312.7L462.829 312.267L465.3 311.97C470.947 311.315 476.544 310.659 482.079 309.942L485.267 309.472L488.455 309.014L490.679 308.705C495.325 308.061 499.946 307.406 504.543 306.701L508.472 306.058L511.808 305.476L515.514 304.883C519.221 304.289 522.928 303.646 526.635 303.015C528.427 302.693 530.182 302.359 531.936 302.025L534.704 301.481L536.853 301.098C540.745 300.368 544.65 299.65 548.481 298.871C550.161 298.55 551.754 298.191 553.422 297.844L557.339 297.016L559.6 296.533C563.097 295.804 566.594 295.061 570.054 294.282C572.525 293.738 574.909 293.156 577.331 292.575L579.469 292.056L581.619 291.573C584.832 290.819 588.069 290.077 591.256 289.285C593.728 288.654 596.125 288.048 598.559 287.368L601.388 286.638L604.91 285.735L612.101 283.817C615.24 282.964 618.279 282.086 621.43 281.183L622.764 280.812L625.322 280.07C627.793 279.389 630.265 278.684 632.649 277.979C635.034 277.274 637.678 276.445 640.149 275.666L643.634 274.565L646.364 273.712C648.514 273.056 650.664 272.4 652.777 271.708C655.693 270.78 658.535 269.79 661.426 268.838L664.021 267.935L666.974 266.958L672.633 265.04C675.722 263.964 678.811 262.826 681.851 261.701L683.827 260.983V65.6819C683.8 64.8099 683.446 63.9803 682.834 63.3588C682.222 62.7373 681.399 62.3699 680.529 62.3298V62.2803ZM362.017 386.484C362.906 386.453 363.75 386.084 364.376 385.452C365.003 384.82 365.365 383.972 365.39 383.082V347.52C357.173 347.718 349.463 347.83 342 347.83C334.537 347.83 327.074 347.718 318.61 347.52V383.082C318.62 383.984 318.983 384.845 319.621 385.481C320.258 386.117 321.12 386.478 322.021 386.484H362.017Z" fill="#FFF8EA"/>
</svg>
