<svg width="712" height="498" viewBox="0 0 712 498" fill="none" xmlns="http://www.w3.org/2000/svg">
<path d="M213.644 391.286H427.225C486.182 391.286 534.016 343.487 534.016 284.571H569.612C648.148 284.571 712 220.765 712 142.286C712 63.8063 648.148 0 569.612 0H133.551C118.756 0 106.853 11.8942 106.853 26.6786V284.571C106.853 343.487 154.686 391.286 213.644 391.286ZM569.612 71.1429C608.88 71.1429 640.806 103.046 640.806 142.286C640.806 181.525 608.88 213.429 569.612 213.429H534.016V71.1429H569.612ZM622.674 498H53.7913C0.840881 498 -14.0653 426.857 13.7448 426.857H662.609C690.419 426.857 675.736 498 622.674 498Z" fill="#FFF8EA"/>
</svg>
