<svg xmlns="http://www.w3.org/2000/svg" xmlns:xlink="http://www.w3.org/1999/xlink" width="400" zoomAndPan="magnify" viewBox="0 0 300 299.999988" height="400" preserveAspectRatio="xMidYMid meet" version="1.0"><path fill="#fff8ea" d="M 269.980469 0 L 119.886719 0 C 103.3125 0 89.867188 13.425781 89.867188 30 L 89.867188 188.023438 C 74.871094 182.925781 70.921875 179.996094 60.027344 179.996094 C 33.714844 179.980469 10.105469 196.539062 2.675781 221.769531 C -9.136719 261.941406 19.785156 298.648438 57.820312 299.96875 C 92.238281 301.152344 119.886719 271.347656 119.886719 236.9375 L 119.886719 45 C 119.886719 36.71875 126.609375 30 134.894531 30 L 254.972656 30 C 263.257812 30 269.980469 36.71875 269.980469 45 L 269.980469 188.023438 C 254.988281 182.925781 251.039062 179.996094 240.140625 179.996094 C 213.832031 179.980469 190.21875 196.539062 182.789062 221.769531 C 170.976562 261.941406 199.902344 298.648438 237.9375 299.96875 C 272.351562 301.152344 300 271.347656 300 236.9375 L 300 30 C 300 13.425781 286.566406 0 269.980469 0 Z M 269.980469 0 " fill-opacity="1" fill-rule="evenodd"/></svg>