<svg width="73" height="69" viewBox="0 0 73 69" fill="none" xmlns="http://www.w3.org/2000/svg">
<path d="M50.9223 44.2665L49.075 46.1043C49.075 46.1043 44.6845 50.4736 32.7003 38.5476C20.7162 26.6219 25.1067 22.2528 25.1067 22.2528L26.2698 21.0953C29.1355 18.2438 29.4056 13.6657 26.9053 10.3236L21.7915 3.48685C18.6972 -0.649752 12.718 -1.19619 9.17142 2.33313L2.80583 8.66771C1.04726 10.4177 -0.131204 12.6862 0.0117132 15.2028C0.377321 21.641 3.28787 35.4933 19.5289 51.6552C36.7518 68.794 52.912 69.4751 59.5205 68.8585C61.6107 68.6637 63.4284 67.5983 64.8933 66.1403L70.6546 60.4076C74.5435 56.5375 73.4468 49.903 68.4711 47.1961L60.723 42.9806C57.4558 41.2032 53.4757 41.7252 50.9223 44.2665Z" fill="#594551"/>
</svg>
